<svg xmlns="http://www.w3.org/2000/svg" xmlns:xlink="http://www.w3.org/1999/xlink" width="500" zoomAndPan="magnify" viewBox="0 0 375 374.999991" height="500" preserveAspectRatio="xMidYMid meet" version="1.0"><defs><g/><clipPath id="2729a528a7"><path d="M 101.171875 91.886719 L 273.671875 91.886719 L 273.671875 221.636719 L 101.171875 221.636719 Z M 101.171875 91.886719 " clip-rule="nonzero"/></clipPath></defs><g fill="#155dfc" fill-opacity="1"><g transform="translate(84.961851, 271.997579)"><g><path d="M 27.921875 -8.8125 C 27.921875 -5.820312 26.804688 -3.53125 24.578125 -1.9375 C 22.359375 -0.351562 19.101562 0.4375 14.8125 0.4375 C 10.882812 0.4375 7.804688 -0.253906 5.578125 -1.640625 C 3.347656 -3.035156 1.914062 -5.144531 1.28125 -7.96875 L 7.46875 -8.984375 C 7.882812 -7.367188 8.703125 -6.191406 9.921875 -5.453125 C 11.140625 -4.722656 12.828125 -4.359375 14.984375 -4.359375 C 19.453125 -4.359375 21.6875 -5.722656 21.6875 -8.453125 C 21.6875 -9.316406 21.429688 -10.03125 20.921875 -10.59375 C 20.410156 -11.15625 19.6875 -11.625 18.75 -12 C 17.8125 -12.382812 16.019531 -12.84375 13.375 -13.375 C 11.082031 -13.90625 9.488281 -14.332031 8.59375 -14.65625 C 7.695312 -14.988281 6.882812 -15.375 6.15625 -15.8125 C 5.4375 -16.257812 4.820312 -16.789062 4.3125 -17.40625 C 3.8125 -18.03125 3.421875 -18.757812 3.140625 -19.59375 C 2.859375 -20.4375 2.71875 -21.40625 2.71875 -22.5 C 2.71875 -25.257812 3.753906 -27.375 5.828125 -28.84375 C 7.910156 -30.3125 10.929688 -31.046875 14.890625 -31.046875 C 18.679688 -31.046875 21.53125 -30.453125 23.4375 -29.265625 C 25.34375 -28.078125 26.570312 -26.117188 27.125 -23.390625 L 20.90625 -22.53125 C 20.59375 -23.851562 19.945312 -24.847656 18.96875 -25.515625 C 17.988281 -26.179688 16.585938 -26.515625 14.765625 -26.515625 C 10.890625 -26.515625 8.953125 -25.296875 8.953125 -22.859375 C 8.953125 -22.066406 9.15625 -21.414062 9.5625 -20.90625 C 9.976562 -20.40625 10.585938 -19.976562 11.390625 -19.625 C 12.203125 -19.269531 13.847656 -18.820312 16.328125 -18.28125 C 19.265625 -17.65625 21.363281 -17.078125 22.625 -16.546875 C 23.894531 -16.023438 24.898438 -15.410156 25.640625 -14.703125 C 26.378906 -14.003906 26.941406 -13.164062 27.328125 -12.1875 C 27.722656 -11.207031 27.921875 -10.082031 27.921875 -8.8125 Z M 27.921875 -8.8125 "/></g></g></g><g fill="#155dfc" fill-opacity="1"><g transform="translate(114.616294, 271.997579)"><g><path d="M 24.140625 0 L 13.15625 -14.046875 L 9.375 -11.15625 L 9.375 0 L 2.96875 0 L 2.96875 -30.59375 L 9.375 -30.59375 L 9.375 -16.71875 L 23.171875 -30.59375 L 30.640625 -30.59375 L 17.5625 -17.65625 L 31.703125 0 Z M 24.140625 0 "/></g></g></g><g fill="#155dfc" fill-opacity="1"><g transform="translate(146.723857, 271.997579)"><g><path d="M 18.046875 -12.546875 L 18.046875 0 L 11.65625 0 L 11.65625 -12.546875 L 0.765625 -30.59375 L 7.46875 -30.59375 L 14.8125 -17.65625 L 22.234375 -30.59375 L 28.9375 -30.59375 Z M 18.046875 -12.546875 "/></g></g></g><g fill="#155dfc" fill-opacity="1"><g transform="translate(176.378299, 271.997579)"><g><path d="M 34.03125 0 L 26.421875 0 L 22.28125 -17.703125 C 21.769531 -19.785156 21.34375 -21.960938 21 -24.234375 C 20.644531 -22.335938 20.359375 -20.890625 20.140625 -19.890625 C 19.929688 -18.898438 18.394531 -12.269531 15.53125 0 L 7.921875 0 L 0.046875 -30.59375 L 6.53125 -30.59375 L 10.96875 -10.828125 L 11.96875 -6.0625 C 12.375 -8.070312 12.765625 -9.988281 13.140625 -11.8125 C 13.523438 -13.644531 14.972656 -19.90625 17.484375 -30.59375 L 24.640625 -30.59375 L 28.515625 -14.3125 C 28.816406 -13.09375 29.328125 -10.34375 30.046875 -6.0625 L 30.59375 -8.578125 L 31.75 -13.578125 L 35.4375 -30.59375 L 41.921875 -30.59375 Z M 34.03125 0 "/></g></g></g><g fill="#155dfc" fill-opacity="1"><g transform="translate(218.341731, 271.997579)"><g><path d="M 2.96875 0 L 2.96875 -30.59375 L 9.375 -30.59375 L 9.375 0 Z M 2.96875 0 "/></g></g></g><g fill="#155dfc" fill-opacity="1"><g transform="translate(230.694139, 271.997579)"><g><path d="M 27.921875 -8.8125 C 27.921875 -5.820312 26.804688 -3.53125 24.578125 -1.9375 C 22.359375 -0.351562 19.101562 0.4375 14.8125 0.4375 C 10.882812 0.4375 7.804688 -0.253906 5.578125 -1.640625 C 3.347656 -3.035156 1.914062 -5.144531 1.28125 -7.96875 L 7.46875 -8.984375 C 7.882812 -7.367188 8.703125 -6.191406 9.921875 -5.453125 C 11.140625 -4.722656 12.828125 -4.359375 14.984375 -4.359375 C 19.453125 -4.359375 21.6875 -5.722656 21.6875 -8.453125 C 21.6875 -9.316406 21.429688 -10.03125 20.921875 -10.59375 C 20.410156 -11.15625 19.6875 -11.625 18.75 -12 C 17.8125 -12.382812 16.019531 -12.84375 13.375 -13.375 C 11.082031 -13.90625 9.488281 -14.332031 8.59375 -14.65625 C 7.695312 -14.988281 6.882812 -15.375 6.15625 -15.8125 C 5.4375 -16.257812 4.820312 -16.789062 4.3125 -17.40625 C 3.8125 -18.03125 3.421875 -18.757812 3.140625 -19.59375 C 2.859375 -20.4375 2.71875 -21.40625 2.71875 -22.5 C 2.71875 -25.257812 3.753906 -27.375 5.828125 -28.84375 C 7.910156 -30.3125 10.929688 -31.046875 14.890625 -31.046875 C 18.679688 -31.046875 21.53125 -30.453125 23.4375 -29.265625 C 25.34375 -28.078125 26.570312 -26.117188 27.125 -23.390625 L 20.90625 -22.53125 C 20.59375 -23.851562 19.945312 -24.847656 18.96875 -25.515625 C 17.988281 -26.179688 16.585938 -26.515625 14.765625 -26.515625 C 10.890625 -26.515625 8.953125 -25.296875 8.953125 -22.859375 C 8.953125 -22.066406 9.15625 -21.414062 9.5625 -20.90625 C 9.976562 -20.40625 10.585938 -19.976562 11.390625 -19.625 C 12.203125 -19.269531 13.847656 -18.820312 16.328125 -18.28125 C 19.265625 -17.65625 21.363281 -17.078125 22.625 -16.546875 C 23.894531 -16.023438 24.898438 -15.410156 25.640625 -14.703125 C 26.378906 -14.003906 26.941406 -13.164062 27.328125 -12.1875 C 27.722656 -11.207031 27.921875 -10.082031 27.921875 -8.8125 Z M 27.921875 -8.8125 "/></g></g></g><g fill="#155dfc" fill-opacity="1"><g transform="translate(260.348582, 271.997579)"><g><path d="M 2.96875 0 L 2.96875 -30.59375 L 27.03125 -30.59375 L 27.03125 -25.640625 L 9.375 -25.640625 L 9.375 -17.953125 L 25.703125 -17.953125 L 25.703125 -13 L 9.375 -13 L 9.375 -4.953125 L 27.921875 -4.953125 L 27.921875 0 Z M 2.96875 0 "/></g></g></g><g clip-path="url(#2729a528a7)"><path fill="#155dfc" d="M 158.109375 122.105469 C 159.660156 123.53125 161.722656 124.398438 163.992188 124.398438 C 165.445312 124.398438 166.8125 124.042969 168.015625 123.414062 L 183.101562 145.53125 C 181.539062 147.101562 180.578125 149.261719 180.578125 151.648438 L 180.585938 152.015625 L 169.121094 156.171875 C 167.914062 154.652344 166.050781 153.675781 163.957031 153.675781 C 160.324219 153.675781 157.375 156.621094 157.375 160.25 C 157.375 163.890625 160.324219 166.832031 163.957031 166.832031 C 167.5 166.832031 170.386719 164.039062 170.535156 160.53125 L 181.976562 156.382812 C 183.527344 158.757812 186.214844 160.332031 189.265625 160.332031 C 194.0625 160.332031 197.949219 156.445312 197.949219 151.648438 C 197.949219 146.847656 194.0625 142.960938 189.265625 142.960938 C 188.507812 142.960938 187.777344 143.058594 187.078125 143.238281 L 171.402344 120.246094 C 172.210938 118.925781 172.675781 117.375 172.675781 115.710938 L 172.632812 114.824219 C 172.449219 113.011719 171.710938 111.363281 170.582031 110.054688 C 168.992188 108.199219 166.632812 107.023438 163.992188 107.023438 C 159.195312 107.023438 155.304688 110.914062 155.304688 115.707031 C 155.304688 116.648438 155.453125 117.550781 155.730469 118.402344 C 156.195312 119.839844 157.023438 121.109375 158.109375 122.105469 M 156.125 192.980469 L 155.5625 192.949219 C 154.414062 192.949219 153.347656 193.304688 152.464844 193.902344 C 151.011719 194.890625 150.0625 196.558594 150.0625 198.449219 C 150.0625 201.300781 152.230469 203.640625 155.007812 203.917969 L 155.5625 203.945312 C 158.601562 203.945312 161.058594 201.480469 161.058594 198.445312 C 161.058594 197.28125 160.699219 196.199219 160.074219 195.308594 L 161.417969 192.4375 L 165.128906 184.496094 L 165.679688 184.519531 C 168.28125 184.519531 170.511719 182.917969 171.441406 180.648438 L 184.644531 180.589844 C 185.542969 182.75 187.671875 184.269531 190.160156 184.269531 C 193.460938 184.269531 196.136719 181.59375 196.136719 178.296875 C 196.136719 175 193.460938 172.320312 190.160156 172.320312 C 187.667969 172.320312 185.53125 173.851562 184.632812 176.023438 L 171.488281 176.074219 C 170.59375 173.734375 168.328125 172.074219 165.675781 172.074219 C 163.621094 172.074219 161.800781 173.070312 160.667969 174.601562 L 149.785156 168.644531 C 149.890625 168.128906 149.953125 167.589844 149.953125 167.042969 C 149.953125 164.703125 148.894531 162.617188 147.230469 161.222656 L 151.785156 149.964844 L 153.230469 150.058594 C 159.445312 150.058594 164.480469 145.019531 164.480469 138.808594 C 164.480469 132.589844 159.445312 127.554688 153.230469 127.554688 C 147.015625 127.554688 141.980469 132.589844 141.980469 138.808594 C 141.980469 142.90625 144.175781 146.5 147.453125 148.464844 L 142.996094 159.488281 L 142.371094 159.460938 C 138.183594 159.460938 134.789062 162.855469 134.789062 167.046875 C 134.789062 171.230469 138.183594 174.625 142.371094 174.625 C 144.359375 174.625 146.160156 173.867188 147.511719 172.621094 L 159.519531 179.195312 C 159.691406 180.4375 160.238281 181.554688 161.035156 182.441406 L 156.738281 191.652344 Z M 152.355469 208.71875 C 148.867188 208.71875 146.035156 211.546875 146.035156 215.039062 C 146.035156 218.527344 148.867188 221.355469 152.355469 221.355469 C 155.84375 221.355469 158.667969 218.527344 158.667969 215.039062 C 158.671875 211.546875 155.847656 208.71875 152.355469 208.71875 Z M 129.175781 210.527344 C 132.664062 210.527344 135.492188 207.703125 135.492188 204.214844 C 135.492188 200.726562 132.664062 197.894531 129.175781 197.894531 C 125.683594 197.894531 122.863281 200.722656 122.863281 204.214844 C 122.863281 207.703125 125.683594 210.527344 129.175781 210.527344 Z M 126.824219 185.792969 C 129.765625 185.792969 132.152344 183.40625 132.152344 180.46875 C 132.152344 177.523438 129.765625 175.136719 126.824219 175.136719 C 123.878906 175.136719 121.496094 177.523438 121.496094 180.46875 C 121.496094 183.40625 123.878906 185.792969 126.824219 185.792969 Z M 106.597656 169.820312 C 109.597656 169.820312 112.027344 167.386719 112.027344 164.386719 C 112.027344 161.394531 109.601562 158.964844 106.597656 158.964844 C 103.605469 158.960938 101.171875 161.390625 101.171875 164.386719 C 101.171875 167.386719 103.605469 169.820312 106.597656 169.820312 Z M 129.417969 157.484375 C 132.230469 156.464844 134.242188 153.765625 134.242188 150.609375 C 134.242188 148.3125 133.183594 146.265625 131.527344 144.925781 C 130.269531 143.910156 128.671875 143.300781 126.933594 143.300781 C 122.894531 143.300781 119.625 146.574219 119.625 150.609375 C 119.625 154.640625 122.894531 157.917969 126.933594 157.917969 C 127.804688 157.914062 128.640625 157.761719 129.417969 157.484375 Z M 128.609375 121.941406 C 128.609375 125.675781 131.640625 128.703125 135.375 128.703125 C 139.105469 128.703125 142.136719 125.675781 142.136719 121.941406 C 142.136719 118.207031 139.105469 115.179688 135.375 115.179688 C 131.640625 115.175781 128.609375 118.207031 128.609375 121.941406 Z M 111.65625 133.871094 C 111.65625 131.308594 109.582031 129.234375 107.015625 129.234375 C 104.453125 129.234375 102.378906 131.308594 102.378906 133.871094 C 102.378906 136.429688 104.453125 138.511719 107.015625 138.511719 C 109.578125 138.511719 111.65625 136.433594 111.65625 133.871094 Z M 168.226562 138.8125 C 168.226562 143.234375 166.3125 147.207031 163.269531 149.953125 L 163.957031 149.929688 C 166.152344 149.929688 168.253906 150.625 169.988281 151.875 L 177.054688 149.316406 C 177.316406 147.945312 177.804688 146.632812 178.5 145.429688 L 166.53125 127.882812 C 165.699219 128.054688 164.851562 128.144531 163.992188 128.144531 L 163.769531 128.144531 C 166.523438 130.859375 168.226562 134.636719 168.226562 138.8125 Z M 175.699219 119.902344 L 188.871094 139.222656 L 189.265625 139.21875 C 196.136719 139.21875 201.699219 144.785156 201.699219 151.648438 C 201.699219 158.515625 196.132812 164.078125 189.265625 164.078125 C 186.097656 164.078125 183.101562 162.875 180.832031 160.78125 L 173.824219 163.324219 C 173.074219 165.730469 171.472656 167.753906 169.375 169.046875 C 171.070312 169.726562 172.554688 170.859375 173.652344 172.328125 L 182.519531 172.289062 C 184.332031 169.988281 187.128906 168.582031 190.160156 168.582031 C 195.523438 168.582031 199.878906 172.933594 199.878906 178.300781 C 199.878906 183.667969 195.523438 188.019531 190.160156 188.019531 C 187.144531 188.019531 184.363281 186.628906 182.550781 184.347656 L 173.566406 184.390625 C 172.109375 186.269531 170.003906 187.582031 167.59375 188.0625 L 165.46875 192.621094 L 238.222656 192.621094 C 257.878906 192.621094 273.8125 176.6875 273.8125 157.03125 C 273.8125 137.375 257.878906 121.441406 238.222656 121.441406 L 236.695312 121.472656 C 233.832031 104.683594 219.21875 91.90625 201.613281 91.90625 C 189.679688 91.90625 179.113281 97.78125 172.65625 106.800781 C 174.6875 108.773438 176.054688 111.441406 176.359375 114.445312 L 176.375 114.652344 L 176.421875 115.621094 L 176.421875 115.710938 C 176.421875 117.148438 176.175781 118.566406 175.699219 119.902344 Z M 175.699219 119.902344 " fill-opacity="1" fill-rule="evenodd"/></g></svg>